<svg xmlns="http://www.w3.org/2000/svg" xmlns:xlink="http://www.w3.org/1999/xlink" version="1.1" enable-background="new 0 89.335 215 70.38" xml:space="preserve" width="47" height="47" style=""><rect id="backgroundrect" width="100%" height="100%" x="0" y="0" fill="none" stroke="none" class="" style=""/>












<g class="currentLayer" style=""><title>Layer 1</title><g class=""><polygon fill="#FFFFFF" points="0.5,4.040001072883626 1.25,1.180000462532064 3.687999725341797,0.4899961435795035 43.56299591064453,0.7900010132789816 45.779991149902344,2.728004612922689 45.779991149902344,22.785001912117025 45.779991149902344,44.10300079822542 44.12499237060547,45.915001072883626 2.687999725341797,45.915001072883626 0.5,44.040001072883626 " id="svg_1" class=""/><polygon fill="#9ACDEA" points="4.799995422363281,23.039999165534994 14.1199951171875,13.720001378059408 23.12999725341797,22.639997639656087 13.819999694824219,31.959997334480306 " id="svg_2" class=""/><path fill="#446E8D" d="M10.980000000000004,16.470000000000027 l-2.84,3.43 l2.84,2.84 l3.23,-3.14 L10.980000000000004,16.470000000000027 zM17.150000000000006,28.890000000000015 l-2.98,-2.98 l3.19,-3.19 l2.98,2.98 L17.150000000000006,28.890000000000015 zM11.019999999999996,22.79000000000002 l3.19,3.19 l-3.12,3.12 l-3.19,-3.19 L11.019999999999996,22.79000000000002 zM20.099999999999994,20.100000000000023 l-2.94,-3.43 l-2.94,2.94 l3.14,3.14 L20.099999999999994,20.100000000000023 z" id="svg_3" class=""/><polygon fill="#9ACDEA" points="45.18999481201172,0.4899961435795035 23.919998168945312,22.840002217292806 45.47999572753906,44.7999917650223 46.269996643066406,44.409996190071126 46.06999969482422,1.8600007677078452 " id="svg_4" class=""/><path fill="#406A84" d="M45.39,43.82000000000002 l0.29000000000000026,-0.2 l-0.2,-4.41 l-1.27,1.27 l1.18,1.08 V43.82000000000002 zM42.31000000000002,29.970000000000027 l1.73,1.73 l-4.3,4.3 l-1.73,-1.73 L42.31000000000002,29.970000000000027 zM42.24000000000001,15.780000000000015 l3.4,3.4 l-4.02,4.02 l-3.4,-3.4 L42.24000000000001,15.780000000000015 zM45.47999999999999,12.65000000000002 l-1.86,1.7600000000000002 l1.96,1.96 L45.47999999999999,12.65000000000002 zM30.980000000000004,18.62000000000002 l-0.5900000000000005,-0.5900000000000005 l-1.08,-1.27 l-4.41,4.41 l1.86,1.7600000000000002 L30.980000000000004,18.62000000000002 zM38.129999999999995,37.74000000000002 l7.25,7.25 v-1.18 l-0.49000000000000027,0.49000000000000027 l-2.25,-2.25 l1.57,-1.57 l-4.41,-4.51 L38.129999999999995,37.74000000000002 zM38.03,34.270000000000024 l-1.73,1.73 l-3.74,-3.74 l1.73,-1.73 L38.03,34.270000000000024 zM44.11,31.76000000000002 l1.6700000000000008,1.6700000000000008 v-5.98 l-0.29000000000000026,-0.29000000000000026 v3.23 L44.11,31.76000000000002 zM38.59,26.300000000000026 l-4.3,4.3 l-3.4,-3.4 l4.3,-4.3 L38.59,26.300000000000026 zM39.45,10.230000000000018 l-1.8,-1.8 l4.6400000000000015,-4.6400000000000015 l1.8,1.8 L39.45,10.230000000000018 zM33.97999999999999,15.630000000000027 l-1.8,-1.8 l4.02,-4.03 l1.8,1.8 L33.97999999999999,15.630000000000027 zM26.760000000000005,22.940000000000026 l-1.57,1.57 l-1.47,-1.47 l-0.1,0.2 l5.59,5.59 l1.7600000000000002,-1.6700000000000008 L26.760000000000005,22.940000000000026 zM38.66,26.250000000000014 l2.98,-2.98 l3.74,3.74 l-2.98,2.98 L38.66,26.250000000000014 zM35.21000000000001,22.830000000000027 l-4.23,-4.23 l2.98,-2.98 l4.23,4.23 L35.21000000000001,22.830000000000027 zM38.09,11.630000000000027 l1.3900000000000001,-1.3900000000000001 l4.23,4.23 l-1.3900000000000001,1.3900000000000001 L38.09,11.630000000000027 zM45.39,6.960000000000022 v-2.74 l-1.27,1.37 L45.39,6.960000000000022 zM45.39,1.4700000000000273 l-0.98,0.6900000000000008 l0.98,2.06 V1.4700000000000273 z" id="svg_5" class=""/><path fill="#233E52" d="M45.68000000000001,19.210000000000022 v-1.18 l-0.1,-1.6700000000000008 l-1.96,-1.96 l-1.37,1.37 L45.68000000000001,19.210000000000022 zM38.05,11.65000000000002 l-1.8,-1.8 l1.3900000000000001,-1.3900000000000001 l1.8,1.8 L38.05,11.65000000000002 zM45.97,38.33000000000003 c0.1,-0.1 0.1,-0.2 0.2,-0.29000000000000026 l-3.43,3.43 l0.2,0.2 l2.94,-2.94 C45.879999999999995,38.72000000000003 45.879999999999995,38.520000000000024 45.97,38.33000000000003 zM45.78,19.800000000000026 l-12.35,12.35 l0.2,0.2 l12.06,-12.06 C45.68000000000001,20.100000000000023 45.68000000000001,19.90000000000002 45.78,19.800000000000026 zM44.900000000000006,44.31000000000003 l0.49000000000000027,-0.49000000000000027 v-2.25 l-1.18,-1.08 l-1.57,1.57 L44.900000000000006,44.31000000000003 zM39.81,35.99000000000002 l-1.73,1.73 l-1.73,-1.73 l1.73,-1.73 L39.81,35.99000000000002 zM34.25999999999999,30.530000000000015 l-1.73,1.73 l-3.4,-3.4 l1.73,-1.73 L34.25999999999999,30.530000000000015 zM26.760000000000005,22.940000000000026 l-1.86,-1.7600000000000002 l-0.6900000000000008,0.6900000000000008 l-0.49000000000000027,1.18 l1.47,1.47 L26.760000000000005,22.940000000000026 zM44.11,31.76000000000002 l1.37,-1.37 v-3.23 l-0.1,-0.2 l-3.03,3.04 L44.11,31.76000000000002 zM38.22,19.79000000000002 l3.4,3.4 l-2.98,2.98 l-3.4,-3.4 L38.22,19.79000000000002 zM30.980000000000004,18.62000000000002 l3.04,-2.94 l-1.7600000000000002,-1.7600000000000002 l-2.94,2.84 l1.08,1.27 L30.980000000000004,18.62000000000002 zM45.39,4.220000000000027 L45.39,4.220000000000027 l-0.98,-2.06 l-1.27,0.78 l-0.78,0.8800000000000006 l1.7600000000000002,1.7600000000000002 L45.39,4.220000000000027 zM29.099999999999994,27.720000000000027 l-0.22000000000000014,-0.22000000000000014 l17.18,-17.27 l0.22000000000000014,0.22000000000000014 L29.099999999999994,27.720000000000027 zM45.02000000000001,34.230000000000025 l-16.08,-16.08 l0.21000000000000013,-0.21000000000000013 l16.08,16.08 L45.02000000000001,34.230000000000025 zM45.78,25.780000000000015 l-12.55,-12.55 c-0.1,0.1 -0.2,0.1 -0.29000000000000026,0.2 l12.84,12.84 C45.68000000000001,25.980000000000018 45.68000000000001,25.880000000000024 45.78,25.780000000000015 z" id="svg_6" class=""/><path fill="#233E52" d="M10.879999999999995,29.600000000000023 l-0.1,0.1 C10.780000000000001,29.700000000000017 10.879999999999995,29.700000000000017 10.879999999999995,29.600000000000023 z" id="svg_10" class=""/><path fill="#233E52" d="M17.36,22.830000000000027 l-3.19,3.19 l-3.19,-3.19 l3.19,-3.19 L17.36,22.830000000000027 zM18.230000000000004,22.740000000000023 l2.25,-2.25 c-0.1,-0.1 -0.1,-0.2 -0.2,-0.29000000000000026 l-2.25,2.25 l-3.63,-3.63 l2.35,-2.35 c-0.1,0 -0.2,-0.1 -0.29000000000000026,-0.2 l-2.35,2.35 l-2.45,-2.45 c0,0.1 -0.1,0.2 -0.1,0.29000000000000026 l2.35,2.35 l-3.72,3.63 l-2.45,-2.44 c-0.1,0.1 -0.2,0.1 -0.29000000000000026,0.2 l2.55,2.54 l-2.94,2.94 c0.1,0 0.2,0.1 0.29000000000000026,0.2 l2.84,-2.84 l3.63,3.63 l-2.94,2.94 c0.2,-0.1 0.29000000000000026,-0.1 0.39000000000000035,-0.1 l2.74,-2.74 l2.6500000000000004,2.6500000000000004 c0.1,-0.1 0.1,-0.2 0.2,-0.29000000000000026 l-2.55,-2.55 l3.72,-3.72 l2.25,2.25 c0.1,-0.1 0.2,-0.2 0.29000000000000026,-0.2 L18.230000000000004,22.740000000000023 zM14.120000000000005,26.470000000000027 l-3.63,-3.63 l3.72,-3.72 l3.63,3.63 L14.120000000000005,26.470000000000027 z" id="svg_11" class=""/><path fill="#000523" d="M43.620000000000005,1.4210854715202004e-14 H2.9399999999999977 c-1.6700000000000008,0 -2.94,1.37 -2.94,2.94 v40.68 c0,1.6700000000000008 1.37,2.94 2.94,2.94 h40.68 c1.6700000000000008,0 2.94,-1.37 2.94,-2.94 v-40.68 C46.56,1.3700000000000188 45.19,1.4210854715202004e-14 43.620000000000005,1.4210854715202004e-14 zM26.960000000000008,1.2700000000000244 h16.66 c0.1,0 0.2,0 0.29000000000000026,0 l-20.58,20.59 l-8.53,-8.53 L26.960000000000008,1.2700000000000244 zM4.219999999999999,45.29000000000002 H2.9399999999999977 c-0.98,0 -1.6700000000000008,-0.78 -1.6700000000000008,-1.6700000000000008 v-40.68 c0,-0.98 0.78,-1.6700000000000008 1.6700000000000008,-1.6700000000000008 h1.27 v44.02 H4.219999999999999 zM13.920000000000002,14.210000000000022 l8.53,8.53 l-8.72,8.72 l-8.43,-8.53 L13.920000000000002,14.210000000000022 zM43.620000000000005,45.29000000000002 H27.450000000000003 l-12.75,-12.94 l8.72,-8.72 l21.18,21.36 C44.31000000000002,45.190000000000026 44.00999999999999,45.29000000000002 43.620000000000005,45.29000000000002 zM45.28999999999999,43.62000000000003 c0,0.1 0,0.2 0,0.29000000000000026 l-21.08,-21.07 l20.78,-20.78 c0.2,0.29000000000000026 0.29000000000000026,0.5900000000000005 0.29000000000000026,0.98 v40.58 H45.28999999999999 z" id="svg_12" class=""/></g></g></svg>