<?xml version="1.0" standalone="no"?>
<!DOCTYPE svg PUBLIC "-//W3C//DTD SVG 20010904//EN"
 "http://www.w3.org/TR/2001/REC-SVG-20010904/DTD/svg10.dtd">
<svg version="1.0" xmlns="http://www.w3.org/2000/svg"
 width="700.000000pt" height="700.000000pt" viewBox="0 0 700.000000 700.000000"
 preserveAspectRatio="xMidYMid meet">
<metadata>
Created by potrace 1.11, written by Peter Selinger 2001-2013
</metadata>
<g transform="translate(0.000000,700.000000) scale(0.100000,-0.100000)"
fill="#000000" stroke="none">
<path d="M330 6985 c-153 -37 -273 -160 -315 -322 -13 -50 -15 -438 -15 -3124
0 -2005 3 -3085 10 -3120 34 -183 189 -324 385 -349 55 -7 1046 -10 3130 -8
l3050 3 56 21 c144 56 236 150 285 294 18 53 19 143 19 3150 0 3007 -1 3097
-19 3150 -54 158 -167 265 -323 305 -50 13 -437 15 -3133 14 -2536 -1 -3085
-3 -3130 -14z m300 -3450 l0 -3275 -127 0 c-102 0 -136 4 -168 19 -51 23 -107
85 -129 142 -15 41 -16 272 -14 3129 l3 3085 25 44 c29 52 82 97 136 116 24 9
83 14 157 15 l117 0 0 -3275z m4375 1745 l-1530 -1530 -633 633 -634 632 904
897 903 898 1260 0 1260 0 -1530 -1530z m1735 390 l0 -315 -185 -185 -185
-185 -245 245 -245 245 342 349 343 349 87 -94 88 -94 0 -315z m0 -488 l0 -99
-121 -113 -121 -113 -46 46 -47 47 165 165 c91 91 166 165 167 165 2 0 3 -44
3 -98z m-820 -158 l242 -247 -238 -238 -239 -239 -250 250 -250 250 235 235
c129 129 240 235 246 235 6 0 121 -111 254 -246z m-3660 -639 l-155 -155 -170
170 -170 170 155 155 155 155 170 -170 170 -170 -155 -155z m3140 120 l245
-245 -43 -42 -42 -43 -250 250 -250 250 37 37 c20 21 42 38 48 38 5 0 120
-110 255 -245z m653 -97 l-238 -238 -47 47 -48 48 237 237 238 238 47 -47 48
-48 -237 -237z m-4150 -46 c145 -145 166 -170 153 -181 -8 -7 -20 -11 -25 -9
-5 1 -84 74 -175 162 -160 152 -166 159 -150 177 9 11 20 19 23 19 3 0 82 -76
174 -168z m440 -54 c-152 -151 -152 -152 -173 -133 l-21 19 153 153 153 153
20 -20 20 -20 -152 -152z m3355 -65 c-14 -14 -20 -14 -33 -3 -14 12 -14 15 2
32 15 17 18 17 32 3 14 -13 14 -17 -1 -32z m-831 -265 c134 -134 243 -247 243
-253 0 -5 -17 -26 -37 -47 l-37 -38 -253 252 -253 253 37 37 c20 21 42 38 47
38 6 0 120 -109 253 -242z m863 196 l45 -45 -44 -41 -43 -41 -46 46 -46 47 39
40 c21 22 42 40 45 40 3 0 26 -21 50 -46z m-3597 -76 c-16 -18 -8 -28 213
-251 l229 -233 -249 248 c-244 244 -249 249 -231 268 17 19 19 19 37 3 17 -15
17 -17 1 -35z m2620 -246 l247 -247 -260 -260 -260 -260 -245 245 c-135 135
-245 248 -245 253 0 9 500 517 509 517 3 0 117 -111 254 -248z m1805 -59
l-182 -183 -28 27 -29 27 208 208 208 208 3 -52 3 -52 -183 -183z m-5025 -116
c-16 -17 -24 -10 -180 145 -154 154 -162 163 -146 181 16 17 24 10 180 -145
154 -154 162 -163 146 -181z m1451 296 c4 -4 -62 -76 -146 -160 -120 -120
-155 -150 -165 -141 -11 9 18 41 139 159 84 81 156 148 159 148 3 1 9 -2 13
-6z m-1670 -189 c88 -86 163 -161 165 -167 2 -5 -77 -90 -175 -188 l-179 -179
-167 167 -168 168 177 177 c98 98 179 178 182 178 2 0 76 -70 165 -156z m1874
-17 l152 -152 -150 -150 -149 -149 -28 25 c-16 14 -88 81 -161 149 l-133 123
153 154 c84 84 155 153 158 153 3 0 74 -69 158 -153z m3552 -189 l0 -333 -167
167 -168 168 165 165 c91 91 166 165 167 165 2 0 3 -150 3 -332z m-5012 115
c-120 -120 -129 -127 -145 -111 -16 16 -16 19 1 37 15 16 21 18 37 8 17 -10
31 0 121 91 57 56 105 102 108 102 3 0 -52 -57 -122 -127z m3822 -387 l205
-206 262 262 263 263 27 -28 28 -27 -42 -42 -42 -42 -26 24 -26 24 -221 -222
-222 -221 24 -26 24 -26 -42 -41 -41 -42 -26 24 -25 24 40 41 40 40 -253 253
-253 252 -39 -40 -39 -40 -48 47 -48 47 42 43 41 42 96 -89 c53 -49 188 -181
301 -294z m-2910 319 c10 -12 10 -18 0 -30 -12 -14 -15 -14 -31 1 -14 13 -16
20 -8 31 15 17 24 17 39 -2z m343 -368 c-16 -17 -24 -11 -175 140 -150 149
-157 158 -141 176 16 17 24 11 175 -140 150 -149 157 -158 141 -176z m1887
-42 l-260 -260 -47 48 -48 47 260 260 260 260 47 -47 48 -48 -260 -260z
m-3327 327 c15 -17 6 -28 -161 -195 l-178 -178 -19 21 c-19 21 -18 22 155 195
96 96 178 175 181 175 3 0 13 -8 22 -18z m5014 -194 l183 -183 0 -85 0 -85
-225 225 c-124 124 -225 229 -225 234 0 14 61 76 74 76 6 0 93 -82 193 -182z
m-989 -1965 l1073 -1082 -27 -18 c-27 -17 -90 -18 -1279 -21 l-1251 -2 -948
962 -947 962 648 648 648 649 505 -508 c278 -280 988 -995 1578 -1590z m-3431
1732 c3 -9 -3 -25 -13 -36 -16 -17 -19 -18 -33 -5 -13 14 -13 18 4 36 22 24
34 25 42 5z m333 -370 l-20 -20 -157 157 c-156 157 -157 157 -138 178 l19 21
158 -158 158 -158 -20 -20z m-595 105 c-120 -120 -183 -176 -189 -170 -7 7 49
70 169 190 120 120 183 176 189 170 7 -7 -49 -70 -169 -190z m353 -347 l-183
-183 -162 162 -163 163 182 182 183 183 162 -162 163 -163 -182 -182z m4035
-6 l-44 -41 -234 234 -235 235 42 42 43 43 236 -236 236 -236 -44 -41z m-838
163 l-260 -260 -25 25 -25 25 260 260 260 260 25 -25 25 -25 -260 -260z m305
245 c-12 -14 15 -45 221 -251 l234 -234 -260 -260 -260 -260 -235 235 -235
235 259 259 c225 225 258 262 247 275 -11 13 -11 19 -1 32 12 13 15 13 28 0
13 -13 13 -18 2 -31z m923 -723 l87 -87 0 -80 0 -80 -130 130 -130 129 37 38
c20 21 40 38 43 38 3 0 45 -39 93 -88z m70 -265 c16 16 17 -2 17 -348 l0 -364
-97 -97 -98 -97 -308 316 -309 316 259 259 258 258 130 -130 c124 -123 131
-129 148 -113z m17 -790 c0 -1 -37 -38 -82 -82 l-83 -80 80 83 c74 76 85 87
85 79z"/>
</g>
</svg>
