<?xml version="1.0" encoding="utf-8"?>
<!-- Generator: Adobe Illustrator 17.1.0, SVG Export Plug-In . SVG Version: 6.00 Build 0)  -->
<!DOCTYPE svg PUBLIC "-//W3C//DTD SVG 1.1//EN" "http://www.w3.org/Graphics/SVG/1.1/DTD/svg11.dtd">
<svg version="1.1" id="Layer_1" xmlns="http://www.w3.org/2000/svg" xmlns:xlink="http://www.w3.org/1999/xlink" x="0px" y="0px"
	 viewBox="0 89.335 215 70.38" enable-background="new 0 89.335 215 70.38" xml:space="preserve">
<polygon fill="#FFFFFF" points="0.5,93.375 1.25,90.515 3.688,89.825 43.563,90.125 45.78,92.063 45.78,112.12 45.78,133.438 
	44.125,135.25 2.688,135.25 0.5,133.375 "/>
<polygon fill="#9ACDEA" points="4.8,112.375 14.12,103.055 23.13,111.975 13.82,121.295 "/>
<path fill="#446E8D" d="M10.98,105.805l-2.84,3.43l2.84,2.84l3.23-3.14L10.98,105.805z M17.15,118.225l-2.98-2.98l3.19-3.19
	l2.98,2.98L17.15,118.225z M11.02,112.125l3.19,3.19l-3.12,3.12l-3.19-3.19L11.02,112.125z M20.1,109.435l-2.94-3.43l-2.94,2.94
	l3.14,3.14L20.1,109.435z"/>
<polygon fill="#9ACDEA" points="45.19,89.825 23.92,112.175 45.48,134.135 46.27,133.745 46.07,91.195 "/>
<path fill="#406A84" d="M45.39,133.155l0.29-0.2l-0.2-4.41l-1.27,1.27l1.18,1.08V133.155z M42.31,119.305l1.73,1.73l-4.3,4.3
	l-1.73-1.73L42.31,119.305z M42.24,105.115l3.4,3.4l-4.02,4.02l-3.4-3.4L42.24,105.115z M45.48,101.985l-1.86,1.76l1.96,1.96
	L45.48,101.985z M30.98,107.955l-0.59-0.59l-1.08-1.27l-4.41,4.41l1.86,1.76L30.98,107.955z M38.13,127.075l7.25,7.25v-1.18
	l-0.49,0.49l-2.25-2.25l1.57-1.57l-4.41-4.51L38.13,127.075z M38.03,123.605l-1.73,1.73l-3.74-3.74l1.73-1.73L38.03,123.605z
	 M44.11,121.095l1.67,1.67v-5.98l-0.29-0.29v3.23L44.11,121.095z M38.59,115.635l-4.3,4.3l-3.4-3.4l4.3-4.3L38.59,115.635z
	 M39.45,99.565l-1.8-1.8l4.64-4.64l1.8,1.8L39.45,99.565z M33.98,104.965l-1.8-1.8l4.02-4.03l1.8,1.8L33.98,104.965z M26.76,112.275
	l-1.57,1.57l-1.47-1.47l-0.1,0.2l5.59,5.59l1.76-1.67L26.76,112.275z M38.66,115.585l2.98-2.98l3.74,3.74l-2.98,2.98L38.66,115.585z
	 M35.21,112.165l-4.23-4.23l2.98-2.98l4.23,4.23L35.21,112.165z M38.09,100.965l1.39-1.39l4.23,4.23l-1.39,1.39L38.09,100.965z
	 M45.39,96.295v-2.74l-1.27,1.37L45.39,96.295z M45.39,90.805l-0.98,0.69l0.98,2.06V90.805z"/>
<path fill="#233E52" d="M45.68,108.545v-1.18l-0.1-1.67l-1.96-1.96l-1.37,1.37L45.68,108.545z M38.05,100.985l-1.8-1.8l1.39-1.39
	l1.8,1.8L38.05,100.985z M45.97,127.665c0.1-0.1,0.1-0.2,0.2-0.29l-3.43,3.43l0.2,0.2l2.94-2.94
	C45.88,128.055,45.88,127.855,45.97,127.665z M45.78,109.135l-12.35,12.35l0.2,0.2l12.06-12.06
	C45.68,109.435,45.68,109.235,45.78,109.135z M44.9,133.645l0.49-0.49v-2.25l-1.18-1.08l-1.57,1.57L44.9,133.645z M39.81,125.325
	l-1.73,1.73l-1.73-1.73l1.73-1.73L39.81,125.325z M34.26,119.865l-1.73,1.73l-3.4-3.4l1.73-1.73L34.26,119.865z M26.76,112.275
	l-1.86-1.76l-0.69,0.69l-0.49,1.18l1.47,1.47L26.76,112.275z M44.11,121.095l1.37-1.37v-3.23l-0.1-0.2l-3.03,3.04L44.11,121.095z
	 M38.22,109.125l3.4,3.4l-2.98,2.98l-3.4-3.4L38.22,109.125z M30.98,107.955l3.04-2.94l-1.76-1.76l-2.94,2.84l1.08,1.27
	L30.98,107.955z M45.39,93.555L45.39,93.555l-0.98-2.06l-1.27,0.78l-0.78,0.88l1.76,1.76L45.39,93.555z M29.1,117.055l-0.22-0.22
	l17.18-17.27l0.22,0.22L29.1,117.055z M45.02,123.565l-16.08-16.08l0.21-0.21l16.08,16.08L45.02,123.565z M45.78,115.115
	l-12.55-12.55c-0.1,0.1-0.2,0.1-0.29,0.2l12.84,12.84C45.68,115.315,45.68,115.215,45.78,115.115z"/>
<path fill="#000523" d="M59.79,120.015h-0.78v-6.67h-4.02v6.67h-0.78v-7.35h5.59v7.35H59.79z M61.46,116.195
	c0-0.69,0.1-1.37,0.39-1.96s0.69-0.98,1.18-1.37c0.49-0.29,1.08-0.49,1.67-0.49c0.98,0,1.76,0.29,2.35,0.98
	c0.59,0.69,0.88,1.57,0.88,2.74v0.2c0,0.69-0.1,1.37-0.39,1.96c-0.29,0.59-0.69,0.98-1.18,1.27s-1.08,0.49-1.67,0.49
	c-0.98,0-1.76-0.29-2.35-0.98c-0.59-0.69-0.88-1.57-0.88-2.74C61.46,116.295,61.46,116.195,61.46,116.195z M62.34,116.485
	c0,0.88,0.2,1.67,0.69,2.16c0.49,0.49,1.08,0.88,1.76,0.88c0.69,0,1.37-0.29,1.76-0.88c0.39-0.59,0.69-1.27,0.69-2.25v-0.2
	c0-0.59-0.1-1.08-0.29-1.57c-0.2-0.49-0.49-0.88-0.88-1.08c-0.39-0.29-0.78-0.39-1.27-0.39c-0.69,0-1.27,0.29-1.76,0.88
	c-0.49,0.59-0.69,1.27-0.69,2.25L62.34,116.485L62.34,116.485z M77.73,113.355h-3.72v6.67h-0.78v-7.35h4.51
	C77.73,112.665,77.73,113.355,77.73,113.355z M84.99,116.385c0,1.18-0.29,2.06-0.78,2.74c-0.49,0.69-1.18,0.98-2.06,0.98
	c-0.98,0-1.76-0.29-2.35-1.08v3.72h-0.78v-10.28h0.78v1.08c0.49-0.78,1.27-1.18,2.35-1.18c0.88,0,1.57,0.29,2.06,0.98
	c0.49,0.69,0.78,1.57,0.78,2.74V116.385L84.99,116.385z M84.1,116.295c0-0.98-0.2-1.67-0.59-2.25c-0.39-0.59-0.98-0.78-1.67-0.78
	c-0.49,0-0.98,0.1-1.27,0.39c-0.39,0.29-0.59,0.59-0.88,1.08v3.53c0.2,0.39,0.49,0.78,0.88,0.98c0.39,0.2,0.78,0.29,1.27,0.29
	c0.69,0,1.18-0.29,1.67-0.78C83.91,118.055,84.1,117.275,84.1,116.295z M91.46,120.015c-0.1-0.2-0.1-0.59-0.2-0.98
	c-0.29,0.39-0.69,0.69-1.08,0.88c-0.39,0.2-0.88,0.29-1.37,0.29c-0.69,0-1.27-0.2-1.67-0.59c-0.39-0.39-0.69-0.88-0.69-1.47
	c0-0.69,0.29-1.27,0.88-1.67c0.59-0.39,1.47-0.59,2.45-0.59h1.47v-0.88c0-0.49-0.2-0.98-0.49-1.27s-0.78-0.49-1.47-0.49
	c-0.59,0-0.98,0.2-1.37,0.39c-0.39,0.2-0.59,0.69-0.59,1.08h-0.78c0-0.59,0.29-1.08,0.78-1.57c0.49-0.39,1.18-0.69,2.06-0.69
	c0.78,0,1.47,0.2,1.96,0.59s0.69,0.98,0.78,1.67v3.53c0,0.69,0.1,1.27,0.2,1.57v0.1h-0.88
	C91.46,119.915,91.46,120.015,91.46,120.015z M88.91,119.425c0.59,0,0.98-0.1,1.47-0.39c0.49-0.29,0.78-0.59,0.98-1.08v-1.67h-1.47
	c-0.78,0-1.47,0.2-1.86,0.39c-0.39,0.29-0.69,0.69-0.69,1.18c0,0.39,0.2,0.78,0.49,0.98C87.93,119.335,88.42,119.425,88.91,119.425z
	 M99.89,116.585h-0.98v3.43h-0.78v-3.43h-0.98l-2.74,3.43h-0.98l3.04-3.82l-2.74-3.63h0.98l2.45,3.23h0.98v-3.23h0.78v3.23h0.98
	l2.45-3.23h0.98l-2.74,3.63l3.04,3.82h-1.08L99.89,116.585z M104.79,119.335l0.39-0.49c0.59-0.78,0.88-1.86,0.98-3.43l0.1-2.84h4.31
	v6.67h0.78v2.84h-0.78v-2.16h-5.59v2.16h-0.78v-2.85h0.59C104.79,119.235,104.79,119.335,104.79,119.335z M105.77,119.335h4.12
	v-5.88h-2.74l-0.1,1.96C106.94,117.075,106.45,118.445,105.77,119.335z M117.63,120.015c-0.1-0.2-0.1-0.59-0.2-0.98
	c-0.29,0.39-0.69,0.69-1.08,0.88c-0.39,0.2-0.88,0.29-1.37,0.29c-0.69,0-1.27-0.2-1.67-0.59c-0.39-0.39-0.69-0.88-0.69-1.47
	c0-0.69,0.29-1.27,0.88-1.67c0.59-0.39,1.47-0.59,2.45-0.59h1.47v-0.88c0-0.49-0.2-0.98-0.49-1.27s-0.78-0.49-1.47-0.49
	c-0.59,0-0.98,0.2-1.37,0.39c-0.39,0.2-0.59,0.69-0.59,1.08h-0.78c0-0.59,0.29-1.08,0.78-1.57c0.49-0.39,1.18-0.69,2.06-0.69
	c0.78,0,1.47,0.2,1.96,0.59s0.69,0.98,0.78,1.67v3.53c0,0.69,0.1,1.27,0.2,1.57v0.1h-0.88v0.1H117.63z M115.08,119.425
	c0.59,0,0.98-0.1,1.47-0.39c0.49-0.29,0.78-0.59,0.98-1.08v-1.67h-1.47c-0.78,0-1.47,0.2-1.86,0.39c-0.39,0.29-0.69,0.69-0.69,1.18
	c0,0.39,0.2,0.78,0.49,0.98C114.2,119.335,114.59,119.425,115.08,119.425z M126.16,120.015h-0.78v-3.43h-4.02v3.43h-0.88v-7.35h0.78
	v3.33h4.02v-3.33h0.78L126.16,120.015L126.16,120.015z M131.06,119.425c0.59,0,1.08-0.2,1.47-0.49s0.59-0.78,0.59-1.27h0.78
	c0,0.39-0.2,0.88-0.39,1.27s-0.59,0.69-0.98,0.88c-0.39,0.2-0.88,0.29-1.37,0.29c-0.98,0-1.76-0.29-2.35-0.98
	c-0.59-0.69-0.88-1.57-0.88-2.74v-0.29c0-0.69,0.1-1.37,0.39-1.96c0.29-0.59,0.59-0.98,1.08-1.27s0.98-0.49,1.67-0.49
	c0.78,0,1.47,0.29,1.96,0.69c0.49,0.49,0.78,1.08,0.88,1.86h-0.78c0-0.59-0.29-1.08-0.59-1.37c-0.39-0.29-0.88-0.49-1.47-0.49
	c-0.78,0-1.27,0.29-1.67,0.78c-0.39,0.49-0.59,1.27-0.59,2.25v0.29c0,0.98,0.2,1.67,0.59,2.25
	C129.69,119.235,130.27,119.425,131.06,119.425z M137.53,116.585h-1.08v3.43h-0.88v-7.35h0.88v3.23h1.08l2.74-3.23h0.98l-3.04,3.63
	l3.33,3.82h-1.08L137.53,116.585z M147.62,112.665h0.78v7.35h-0.78v-6.08l-4.02,6.08h-0.78v-7.35h0.78v6.08L147.62,112.665z
	 M154.68,118.935l2.94-6.27h0.98v7.35h-0.78v-6.08l-2.84,6.08h-0.59l-2.94-6.18v6.18h-0.78v-7.35h1.08L154.68,118.935z
	 M58.91,125.215h0.78v7.35h-0.78v-6.08l-4.02,6.08h-0.78v-7.35h0.78v6.08L58.91,125.215z M67.83,125.705c-0.59,0-0.98,0.2-1.37,0.49
	s-0.59,0.78-0.59,1.27h-0.78c0-0.39,0.1-0.88,0.39-1.18c0.29-0.39,0.59-0.69,0.98-0.88c0.39-0.2,0.88-0.29,1.37-0.29
	c0.88,0,1.67,0.29,2.25,0.98c0.59,0.59,0.88,1.47,0.98,2.45v0.49c0,0.69-0.1,1.37-0.39,1.86c-0.29,0.59-0.59,0.98-1.08,1.27
	c-0.49,0.29-0.98,0.49-1.67,0.49c-0.78,0-1.47-0.29-1.96-0.78c-0.49-0.49-0.78-1.08-0.78-1.86h0.78c0,0.59,0.2,1.08,0.59,1.37
	c0.39,0.29,0.88,0.49,1.47,0.49c0.69,0,1.27-0.29,1.67-0.78c0.4-0.49,0.69-1.18,0.69-2.06h-3.33v-0.59h3.33
	c0-0.88-0.29-1.47-0.69-1.96C69.01,125.995,68.52,125.705,67.83,125.705z M74.79,129.135h-1.08v3.43h-0.88v-7.35h0.88v3.23h1.08
	l2.74-3.23h0.98l-3.04,3.63l3.33,3.82h-1.08L74.79,129.135z M79.3,128.745c0-0.69,0.1-1.37,0.39-1.96c0.29-0.59,0.69-0.98,1.18-1.37
	c0.49-0.29,1.08-0.49,1.67-0.49c0.98,0,1.76,0.29,2.35,0.98s0.88,1.57,0.88,2.74v0.2c0,0.69-0.1,1.37-0.39,1.96
	c-0.29,0.59-0.69,0.98-1.18,1.27c-0.49,0.29-1.08,0.49-1.67,0.49c-0.98,0-1.76-0.29-2.35-0.98c-0.59-0.69-0.88-1.57-0.88-2.74
	V128.745z M80.18,128.935c0,0.88,0.2,1.67,0.69,2.16c0.49,0.59,1.08,0.88,1.76,0.88c0.78,0,1.37-0.29,1.76-0.88s0.69-1.27,0.69-2.25
	v-0.2c0-0.59-0.1-1.08-0.29-1.57c-0.2-0.49-0.49-0.88-0.88-1.08c-0.39-0.29-0.78-0.39-1.27-0.39c-0.69,0-1.27,0.29-1.76,0.88
	c-0.49,0.59-0.69,1.27-0.69,2.25L80.18,128.935L80.18,128.935z M93.22,132.565h-0.78v-3.43h-4.02v3.43h-0.78v-7.35h0.78v3.33h4.02
	v-3.33h0.78V132.565z M94.99,128.745c0-0.69,0.1-1.37,0.39-1.96c0.29-0.59,0.69-0.98,1.18-1.37c0.49-0.29,1.08-0.49,1.67-0.49
	c0.98,0,1.76,0.29,2.35,0.98s0.88,1.57,0.88,2.74v0.2c0,0.69-0.1,1.37-0.39,1.96c-0.29,0.59-0.69,0.98-1.18,1.27
	c-0.49,0.29-1.08,0.49-1.67,0.49c-0.98,0-1.76-0.29-2.35-0.98c-0.59-0.69-0.88-1.57-0.88-2.74V128.745z M95.77,128.935
	c0,0.88,0.2,1.67,0.69,2.16c0.49,0.59,1.08,0.88,1.76,0.88c0.78,0,1.37-0.29,1.76-0.88c0.49-0.59,0.69-1.27,0.69-2.25v-0.2
	c0-0.59-0.1-1.08-0.29-1.57c-0.2-0.49-0.49-0.88-0.88-1.08c-0.39-0.29-0.78-0.39-1.27-0.39c-0.69,0-1.27,0.29-1.76,0.88
	c-0.49,0.59-0.69,1.27-0.69,2.25L95.77,128.935L95.77,128.935z M107.34,131.385l2.94-6.27h0.98v7.35h-0.78v-5.98l-2.84,6.08h-0.59
	l-2.94-6.18v6.18h-0.78v-7.35h1.08L107.34,131.385z M118.32,125.215h0.78v7.35h-0.78v-6.08l-4.02,6.08h-0.78v-7.35h0.78v6.08
	L118.32,125.215z M126.55,132.565h-0.78v-3.14c-0.69,0.29-1.27,0.39-1.96,0.39c-0.98,0-1.67-0.2-2.16-0.69
	c-0.39-0.39-0.69-1.08-0.69-2.06v-1.96h0.78v1.96c0,0.69,0.2,1.18,0.49,1.57s0.78,0.49,1.57,0.49c0.69,0,1.27-0.1,1.96-0.29v-3.63
	h0.78L126.55,132.565L126.55,132.565z M131.65,132.665c-0.59,0-1.18-0.2-1.67-0.49c-0.49-0.29-0.88-0.78-1.18-1.27
	c-0.29-0.49-0.39-1.18-0.39-1.86v-0.29c0-0.69,0.1-1.37,0.39-1.96s0.69-0.98,1.18-1.37c0.49-0.29,0.98-0.49,1.57-0.49
	c0.88,0,1.67,0.29,2.16,0.88c0.49,0.59,0.78,1.47,0.78,2.55v0.49h-5.29v0.2c0,0.88,0.29,1.57,0.69,2.06
	c0.49,0.59,1.08,0.88,1.76,0.88c0.39,0,0.78-0.1,1.18-0.29c0.29-0.2,0.59-0.39,0.88-0.78l0.49,0.39
	C133.61,132.265,132.82,132.665,131.65,132.665z M131.45,125.705c-0.59,0-1.08,0.2-1.57,0.69c-0.39,0.39-0.69,1.08-0.78,1.76h4.41
	v-0.1c0-0.69-0.2-1.27-0.59-1.76C132.63,125.895,132.14,125.705,131.45,125.705z M138.7,131.975c0.59,0,1.08-0.2,1.47-0.49
	c0.39-0.29,0.59-0.78,0.59-1.27h0.78c0,0.39-0.2,0.88-0.39,1.27c-0.29,0.39-0.59,0.69-0.98,0.88c-0.39,0.2-0.88,0.29-1.37,0.29
	c-0.98,0-1.76-0.29-2.35-0.98c-0.59-0.69-0.88-1.57-0.88-2.74v-0.29c0-0.69,0.1-1.37,0.39-1.96s0.59-0.98,1.08-1.27
	c0.49-0.29,0.98-0.49,1.67-0.49c0.78,0,1.47,0.29,1.96,0.69c0.49,0.49,0.78,1.08,0.88,1.86h-0.78c0-0.59-0.29-1.08-0.59-1.37
	c-0.39-0.29-0.88-0.49-1.47-0.49c-0.78,0-1.27,0.29-1.67,0.78c-0.39,0.49-0.59,1.27-0.59,2.25v0.29c0,0.98,0.2,1.67,0.59,2.25
	C137.43,131.775,138.02,131.975,138.7,131.975z M145.17,129.135h-1.08v3.43h-0.88v-7.35h0.88v3.23h1.08l2.74-3.23h0.98l-3.04,3.63
	l3.33,3.82h-1.08L145.17,129.135z M155.27,125.215h0.78v7.35h-0.78v-6.08l-4.02,6.08h-0.78v-7.35h0.78v6.08L155.27,125.215z
	 M162.33,131.385l2.94-6.27h0.98v7.35h-0.78v-5.98l-2.84,6.08h-0.59l-2.94-6.18v6.18h-0.78v-7.35h1.08L162.33,131.385z
	 M171.74,131.875l0.39-0.49c0.59-0.78,0.88-1.86,0.98-3.43l0.1-2.84h4.31v6.67h0.78v2.84h-0.88v-2.16h-5.59v2.16h-0.78v-2.84h0.69
	V131.875z M172.62,131.875h4.12v-5.88H174l-0.1,1.96C173.8,129.625,173.41,130.895,172.62,131.875z M182.72,132.665
	c-0.59,0-1.18-0.2-1.67-0.49c-0.49-0.29-0.88-0.78-1.18-1.27c-0.29-0.49-0.39-1.18-0.39-1.86v-0.29c0-0.69,0.1-1.37,0.39-1.96
	s0.69-0.98,1.18-1.37c0.49-0.29,0.98-0.49,1.57-0.49c0.88,0,1.67,0.29,2.16,0.88c0.49,0.59,0.78,1.47,0.78,2.55v0.49h-5.29v0.2
	c0,0.88,0.29,1.57,0.69,2.06c0.49,0.59,1.08,0.88,1.76,0.88c0.39,0,0.78-0.1,1.18-0.29c0.29-0.2,0.59-0.39,0.88-0.78l0.49,0.39
	C184.78,132.265,183.89,132.665,182.72,132.665z M182.62,125.705c-0.59,0-1.08,0.2-1.57,0.69c-0.39,0.39-0.69,1.08-0.78,1.76h4.41
	v-0.1c0-0.69-0.2-1.27-0.59-1.76C183.7,125.895,183.21,125.705,182.62,125.705z M192.81,125.215v7.35h-0.78v-6.67h-3.04l-0.1,2.74
	c-0.1,0.98-0.2,1.76-0.29,2.35c-0.2,0.49-0.39,0.98-0.69,1.18c-0.29,0.29-0.69,0.39-1.18,0.39h-0.29v-0.69h0.29
	c0.49,0,0.78-0.29,0.98-0.69c0.2-0.4,0.29-1.27,0.39-2.35l0.2-3.63C188.21,125.215,192.81,125.215,192.81,125.215z M199.68,132.565
	c-0.1-0.2-0.1-0.59-0.2-0.98c-0.29,0.39-0.69,0.69-1.08,0.88c-0.39,0.2-0.88,0.29-1.37,0.29c-0.69,0-1.27-0.2-1.67-0.59
	c-0.39-0.39-0.69-0.88-0.69-1.47c0-0.69,0.29-1.27,0.88-1.67c0.59-0.39,1.47-0.59,2.45-0.59h1.47v-0.98c0-0.49-0.2-0.98-0.49-1.27
	c-0.29-0.29-0.78-0.49-1.47-0.49c-0.59,0-0.98,0.2-1.37,0.39c-0.39,0.2-0.59,0.69-0.59,1.08h-0.78c0-0.59,0.29-1.08,0.78-1.57
	c0.49-0.39,1.18-0.69,2.06-0.69c0.78,0,1.47,0.2,1.96,0.59s0.69,0.98,0.78,1.67v3.53c0,0.69,0.1,1.27,0.2,1.57v0.1
	C200.56,132.565,199.68,132.565,199.68,132.565z M197.13,131.975c0.59,0,0.98-0.1,1.47-0.39c0.39-0.29,0.78-0.59,0.98-1.08v-1.67
	h-1.57c-0.78,0-1.47,0.2-1.86,0.39c-0.39,0.29-0.69,0.69-0.69,1.18c0,0.39,0.2,0.78,0.49,0.98
	C196.15,131.775,196.54,131.975,197.13,131.975z M206.54,131.385l2.94-6.27h0.98v7.35h-0.78v-5.98l-2.84,6.08h-0.59l-2.94-6.18v6.18
	h-0.78v-7.35h1.08L206.54,131.385z M58.91,97.475h-3.43l-0.69,2.06h-1.67l3.33-8.92h1.37l3.33,8.92H59.5L58.91,97.475z
	 M55.87,96.195h2.55l-1.27-3.72L55.87,96.195z M70.58,101.785h-1.47v-2.16h-5.88v2.16h-1.47l-0.1-3.43h0.69
	c0.29-0.29,0.59-0.88,0.88-1.47c0.2-0.69,0.29-1.37,0.39-2.25l0.2-3.92h5.59v7.65h1.18v3.42H70.58z M64.11,98.355h3.82v-6.37h-2.55
	l-0.2,2.45C65.09,96.095,64.7,97.375,64.11,98.355z M71.85,99.525v-8.92h3.04c0.98,0,1.76,0.2,2.35,0.59
	c0.49,0.39,0.78,0.98,0.78,1.76c0,0.39-0.1,0.78-0.29,1.08c-0.2,0.29-0.49,0.59-0.98,0.78c0.49,0.1,0.88,0.39,1.08,0.78
	c0.29,0.39,0.39,0.78,0.39,1.27c0,0.88-0.29,1.47-0.78,1.96c-0.49,0.39-1.27,0.69-2.35,0.69C75.09,99.525,71.85,99.525,71.85,99.525
	z M73.32,94.435h1.57c0.49,0,0.88-0.1,1.08-0.29c0.29-0.2,0.39-0.49,0.39-0.98c0-0.39-0.1-0.78-0.39-0.98
	c-0.29-0.2-0.69-0.29-1.18-0.29h-1.47V94.435z M73.32,95.515v2.74h1.67c0.49,0,0.88-0.1,1.18-0.39c0.29-0.29,0.39-0.59,0.39-0.98
	c0-0.98-0.49-1.37-1.47-1.47L73.32,95.515L73.32,95.515z M86.75,95.415c0,0.88-0.2,1.67-0.49,2.35c-0.29,0.69-0.78,1.18-1.27,1.57
	s-1.18,0.49-1.96,0.49c-0.69,0-1.37-0.2-1.96-0.49s-0.98-0.88-1.27-1.47c-0.3-0.79-0.4-1.57-0.4-2.45v-0.49
	c0-0.88,0.2-1.67,0.49-2.35c0.29-0.69,0.78-1.18,1.27-1.57c0.59-0.29,1.18-0.49,1.96-0.49s1.37,0.2,1.96,0.49s0.98,0.88,1.27,1.47
	c0.29,0.69,0.49,1.37,0.49,2.25v0.69C86.84,95.415,86.75,95.415,86.75,95.415z M85.28,94.925c0-0.98-0.2-1.76-0.59-2.25
	c-0.39-0.49-0.88-0.78-1.57-0.78s-1.18,0.29-1.57,0.78c-0.39,0.49-0.59,1.27-0.59,2.25v0.49c0,0.98,0.2,1.76,0.59,2.25
	s0.88,0.78,1.57,0.78s1.18-0.29,1.57-0.78s0.59-1.27,0.59-2.25V94.925z M90.97,95.805h-1.08v3.82h-1.57v-8.92h1.57v3.73h0.88
	l2.65-3.72h1.86l-3.04,4.31l3.33,4.61h-1.86L90.97,95.805z M101.36,97.475h-3.43l-0.69,2.06h-1.67l3.33-8.92h1.37l3.33,8.92h-1.67
	L101.36,97.475z M98.42,96.195h2.55l-1.27-3.63L98.42,96.195z M110.38,91.885h-2.74v7.65h-1.57v-7.65h-2.74v-1.28h7.06
	L110.38,91.885L110.38,91.885z"/>
<path fill="#000523" d="M6.47,151.675H2.25v1.86h1.57c1.18,0,2.06,0.29,2.74,0.88c0.69,0.59,0.98,1.27,0.98,2.25
	s-0.29,1.67-0.98,2.25c-0.68,0.61-1.56,0.9-2.64,0.9H0.2v-9.8h6.27V151.675z M2.25,155.105v2.94h1.57c0.49,0,0.88-0.1,1.18-0.39
	c0.29-0.29,0.49-0.69,0.49-1.08s-0.2-0.78-0.39-0.98c-0.29-0.29-0.69-0.39-1.18-0.39L2.25,155.105L2.25,155.105z M15.59,155.505
	h-3.82v2.55h4.51v1.57H9.8v-9.61h6.47v1.67h-4.51v2.35h3.82v1.47H15.59z M26.47,150.015v9.7h-1.96v-8.04h-2.55l-0.2,3.43
	c-0.1,1.18-0.2,2.06-0.39,2.74c-0.2,0.69-0.59,1.18-0.98,1.47c-0.39,0.29-0.98,0.49-1.76,0.49h-0.49v-1.57h0.29
	c0.49-0.1,0.88-0.29,1.08-0.88c0.2-0.49,0.29-1.47,0.39-2.74l0.2-4.41h6.37C26.47,150.205,26.47,150.015,26.47,150.015z
	 M37.15,155.105c0,0.98-0.2,1.76-0.49,2.45s-0.78,1.27-1.47,1.67c-0.59,0.39-1.37,0.59-2.16,0.59s-1.57-0.2-2.16-0.59
	s-1.08-0.98-1.47-1.67c-0.29-0.69-0.49-1.57-0.49-2.45v-0.49c0-0.98,0.2-1.76,0.49-2.55c0.29-0.79,0.88-1.27,1.47-1.67
	c0.59-0.39,1.37-0.59,2.16-0.59s1.57,0.2,2.16,0.59s1.08,0.98,1.47,1.67c0.29,0.69,0.49,1.57,0.49,2.55V155.105L37.15,155.105z
	 M35.19,154.615c0-0.98-0.2-1.76-0.49-2.35c-0.39-0.49-0.88-0.78-1.57-0.78s-1.18,0.29-1.57,0.78s-0.59,1.27-0.59,2.25v0.49
	c0,0.98,0.2,1.76,0.49,2.35c0.39,0.49,0.88,0.78,1.57,0.78c0.69,0,1.18-0.29,1.57-0.78s0.49-1.27,0.49-2.35L35.19,154.615
	L35.19,154.615z M39.7,159.715v-9.7h3.43c1.18,0,2.06,0.2,2.65,0.69c0.59,0.39,0.88,1.08,0.88,1.96c0,0.49-0.1,0.88-0.39,1.27
	c-0.29,0.39-0.59,0.59-0.98,0.78c0.49,0.1,0.88,0.39,1.18,0.78c0.29,0.39,0.39,0.88,0.39,1.37c0,0.98-0.29,1.67-0.88,2.16
	c-0.59,0.49-1.47,0.69-2.55,0.69H39.7L39.7,159.715z M41.76,154.125h1.47c0.98,0,1.47-0.39,1.47-1.18c0-0.39-0.1-0.78-0.39-0.98
	c-0.29-0.2-0.69-0.29-1.18-0.29h-1.37C41.76,151.675,41.76,154.125,41.76,154.125z M41.76,155.505v2.65h1.67
	c0.49,0,0.88-0.1,1.08-0.29c0.29-0.2,0.39-0.49,0.39-0.98c0-0.88-0.49-1.37-1.37-1.37C43.52,155.505,41.76,155.505,41.76,155.505z
	 M54.8,157.755h-3.53l-0.69,1.96h-2.16l3.63-9.7h1.86l3.63,9.7h-2.16L54.8,157.755z M51.85,156.085h2.45l-1.18-3.63L51.85,156.085z
	 M67.24,155.795h-1.18v3.92H64.1v-9.7h1.96v3.82h0.88l2.35-3.82h2.45l-2.94,4.61l3.33,5.1h-2.35L67.24,155.795z M81.16,156.485
	c-0.1,0.98-0.49,1.86-1.18,2.45s-1.67,0.88-2.74,0.88c-1.27,0-2.25-0.39-2.94-1.27s-1.08-1.96-1.08-3.43v-0.59
	c0-0.98,0.2-1.76,0.49-2.45c0.29-0.69,0.78-1.27,1.37-1.67c0.59-0.39,1.27-0.59,2.16-0.59c1.08,0,2.06,0.29,2.74,0.88
	c0.69,0.59,1.08,1.47,1.18,2.55H79.2c-0.1-0.59-0.2-1.08-0.49-1.37c-0.29-0.29-0.78-0.39-1.37-0.39c-0.69,0-1.18,0.29-1.47,0.69
	c-0.29,0.49-0.49,1.18-0.49,2.25v0.69c0,1.08,0.2,1.76,0.49,2.35c0.29,0.49,0.78,0.69,1.47,0.69c0.59,0,1.08-0.2,1.37-0.39
	c0.29-0.29,0.49-0.69,0.49-1.27C79.11,156.485,81.16,156.485,81.16,156.485z M89.3,155.505h-3.82v2.55h4.51v1.57h-6.47v-9.61h6.47
	v1.67h-4.51v2.35h3.82V155.505z M100.08,159.715h-1.96v-4.12H94.2v4.12h-1.96v-9.7h1.96v3.92h3.92v-3.92h1.96
	C100.08,150.015,100.08,159.715,100.08,159.715z M108.71,150.015h1.96v9.7h-1.96v-6.37l-3.82,6.37h-1.96v-9.7h1.96v6.47
	L108.71,150.015z M118.02,159.715v-3.53h-1.67l-1.76,3.53h-2.16l2.06-4.12c-0.98-0.59-1.47-1.37-1.47-2.55
	c0-0.98,0.29-1.67,0.98-2.25c0.59-0.49,1.47-0.78,2.55-0.78h3.43v9.7H118.02L118.02,159.715z M115.08,153.145
	c0,0.49,0.1,0.98,0.39,1.18c0.29,0.29,0.69,0.39,1.18,0.39h1.37v-3.04h-1.37C115.67,151.675,115.08,152.165,115.08,153.145z
	 M134.88,156.485c-0.1,0.98-0.49,1.86-1.18,2.45c-0.69,0.59-1.67,0.88-2.74,0.88c-1.27,0-2.25-0.39-2.94-1.27s-1.08-1.96-1.08-3.43
	v-0.59c0-0.98,0.2-1.76,0.49-2.45s0.78-1.27,1.37-1.67c0.59-0.39,1.27-0.59,2.16-0.59c1.08,0,2.06,0.29,2.74,0.88
	s1.08,1.47,1.18,2.55h-1.96c-0.1-0.59-0.2-1.08-0.49-1.37c-0.29-0.29-0.78-0.39-1.37-0.39c-0.69,0-1.18,0.29-1.47,0.69
	c-0.29,0.49-0.49,1.18-0.49,2.25v0.69c0,1.08,0.2,1.76,0.49,2.35c0.29,0.49,0.78,0.69,1.47,0.69c0.59,0,1.08-0.2,1.37-0.39
	c0.29-0.29,0.49-0.69,0.49-1.27C132.82,156.485,134.88,156.485,134.88,156.485z M143.02,155.505h-3.82v2.55h4.51v1.57h-6.47v-9.61
	h6.47v1.67h-4.51v2.35h3.82V155.505z M148.02,156.285v3.43h-1.96v-9.7h3.72c0.69,0,1.37,0.1,1.96,0.39
	c0.59,0.29,0.98,0.69,1.27,1.08c0.29,0.49,0.39,1.08,0.39,1.67c0,0.98-0.29,1.67-0.98,2.25c-0.69,0.59-1.57,0.78-2.65,0.78h-1.76
	v0.1H148.02z M148.02,154.715h1.76c0.49,0,0.98-0.1,1.18-0.39c0.29-0.29,0.39-0.59,0.39-1.08s-0.1-0.88-0.39-1.18
	c-0.29-0.29-0.69-0.39-1.18-0.39h-1.76V154.715z M162.13,151.675h-4.31v8.04h-1.96v-9.7h6.27V151.675z M170.37,155.505h-3.82v2.55
	h4.51v1.57h-6.47v-9.61h6.47v1.67h-4.51v2.35h3.82V155.505z M179.09,155.505h-3.82v2.55h4.51v1.57h-6.47v-9.61h6.47v1.67h-4.51v2.35
	h3.82V155.505z M181.93,159.715v-9.7h3.43c1.18,0,2.06,0.2,2.65,0.69c0.59,0.39,0.88,1.08,0.88,1.96c0,0.49-0.1,0.88-0.39,1.27
	c-0.29,0.39-0.59,0.59-0.98,0.78c0.49,0.1,0.88,0.39,1.18,0.78c0.29,0.39,0.39,0.88,0.39,1.37c0,0.98-0.29,1.67-0.88,2.16
	c-0.59,0.49-1.47,0.69-2.55,0.69H181.93L181.93,159.715z M183.99,154.125h1.47c0.98,0,1.47-0.39,1.47-1.18
	c0-0.39-0.1-0.78-0.39-0.98c-0.29-0.2-0.69-0.29-1.18-0.29h-1.37L183.99,154.125L183.99,154.125z M183.99,155.505v2.65h1.67
	c0.49,0,0.88-0.1,1.08-0.29c0.29-0.2,0.39-0.49,0.39-0.98c0-0.88-0.49-1.37-1.37-1.37C185.85,155.505,183.99,155.505,183.99,155.505
	z M199.68,159.715h-1.96v-4.12h-3.92v4.12h-1.96v-9.7h1.96v3.92h3.92v-3.92h1.96V159.715z M207.91,157.755h-3.53l-0.69,1.96h-2.16
	l3.63-9.7h1.86l3.63,9.7h-2.16L207.91,157.755z M204.97,156.085h2.45l-1.18-3.63L204.97,156.085z"/>
<rect x="0.1" y="141.585" fill="#2D5B72" width="211.24" height="0.59"/>
<path fill="#233E52" d="M10.88,118.935l-0.1,0.1C10.78,119.035,10.88,119.035,10.88,118.935z"/>
<path fill="#233E52" d="M17.36,112.165l-3.19,3.19l-3.19-3.19l3.19-3.19L17.36,112.165z M18.23,112.075l2.25-2.25
	c-0.1-0.1-0.1-0.2-0.2-0.29l-2.25,2.25l-3.63-3.63l2.35-2.35c-0.1,0-0.2-0.1-0.29-0.2l-2.35,2.35l-2.45-2.45c0,0.1-0.1,0.2-0.1,0.29
	l2.35,2.35l-3.72,3.63l-2.45-2.44c-0.1,0.1-0.2,0.1-0.29,0.2l2.55,2.54l-2.94,2.94c0.1,0,0.2,0.1,0.29,0.2l2.84-2.84l3.63,3.63
	l-2.94,2.94c0.2-0.1,0.29-0.1,0.39-0.1l2.74-2.74l2.65,2.65c0.1-0.1,0.1-0.2,0.2-0.29l-2.55-2.55l3.72-3.72l2.25,2.25
	c0.1-0.1,0.2-0.2,0.29-0.2L18.23,112.075z M14.12,115.805l-3.63-3.63l3.72-3.72l3.63,3.63L14.12,115.805z"/>
<path fill="#000523" d="M43.62,89.335H2.94c-1.67,0-2.94,1.37-2.94,2.94v40.68c0,1.67,1.37,2.94,2.94,2.94h40.68
	c1.67,0,2.94-1.37,2.94-2.94v-40.68C46.56,90.705,45.19,89.335,43.62,89.335z M26.96,90.605h16.66c0.1,0,0.2,0,0.29,0l-20.58,20.59
	l-8.53-8.53L26.96,90.605z M4.22,134.625H2.94c-0.98,0-1.67-0.78-1.67-1.67v-40.68c0-0.98,0.78-1.67,1.67-1.67h1.27v44.02H4.22z
	 M13.92,103.545l8.53,8.53l-8.72,8.72l-8.43-8.53L13.92,103.545z M43.62,134.625H27.45l-12.75-12.94l8.72-8.72l21.18,21.36
	C44.31,134.525,44.01,134.625,43.62,134.625z M45.29,132.955c0,0.1,0,0.2,0,0.29l-21.08-21.07l20.78-20.78
	c0.2,0.29,0.29,0.59,0.29,0.98v40.58H45.29z"/>
</svg>
