<svg width="48" height="48" viewBox="0 0 48 48" version="1.1" xmlns="http://www.w3.org/2000/svg" xmlns:xlink="http://www.w3.org/1999/xlink">
<title>closed-envelope-circle</title>
<desc>Created using Figma</desc>
<g id="Canvas" transform="translate(-3819 -457)">
<g id="closed-envelope-circle">
<g id="Group">
<g id="Group">
<g id="Vector 2">
<use xlink:href="#path0_fill" transform="translate(3824.49 463.171)" fill="#FFFFFF"/>
</g>
<g id="Vector">
<use xlink:href="#path1_fill" transform="translate(3819 457)" fill="#2B8F99"/>
</g>
</g>
</g>
</g>
</g>
<defs>
<path id="path0_fill" d="M 35.3143 5.14286L 13.7143 0L 1.37143 5.14286L 0 30.1714L 19.2 35.6571L 33.9429 25.3714L 35.3143 5.14286Z"/>
<path id="path1_fill" d="M 24 48C 21.792 48 19.664 47.712 17.616 47.136C 15.568 46.5598 13.656 45.752 11.88 44.712C 10.104 43.672 8.488 42.424 7.032 40.968C 5.576 39.5122 4.328 37.896 3.288 36.12C 2.248 34.3438 1.44 32.432 0.864 30.3839C 0.288 28.336 0 26.208 0 24C 0 21.792 0.288 19.664 0.864 17.616C 1.44 15.568 2.248 13.656 3.288 11.88C 4.328 10.104 5.576 8.488 7.032 7.032C 8.488 5.576 10.104 4.328 11.88 3.288C 13.656 2.248 15.568 1.44 17.616 0.864C 19.664 0.288 21.792 0 24 0C 27.296 0 30.408 0.632 33.336 1.896C 36.264 3.16 38.808 4.872 40.968 7.032C 43.128 9.192 44.84 11.736 46.104 14.664C 47.368 17.592 48 20.704 48 24C 48 26.208 47.712 28.336 47.136 30.384C 46.5598 32.4318 45.752 34.3438 44.712 36.12C 43.672 37.896 42.424 39.512 40.968 40.968C 39.5122 42.424 37.896 43.6722 36.12 44.712C 34.3438 45.752 32.432 46.56 30.3838 47.136C 28.336 47.712 26.208 48 24 48ZM 35.568 14.112L 12.816 14.112C 12.592 14.112 12.4 14.184 12.24 14.328C 12.08 14.472 12 14.672 12 14.928L 12 17.472C 12 17.6 12.048 17.664 12.144 17.664L 24.096 24.48L 24.1922 24.528C 24.256 24.528 24.3042 24.512 24.3362 24.48L 35.9042 17.664C 35.968 17.632 36.0162 17.616 36.0482 17.616C 36.08 17.616 36.1282 17.6 36.1922 17.568C 36.3202 17.568 36.3842 17.504 36.3842 17.376L 36.3842 14.928C 36.3842 14.672 36.3042 14.472 36.144 14.328C 35.9838 14.184 35.792 14.112 35.568 14.112ZM 19.248 24.336C 19.28 24.304 19.296 24.2559 19.296 24.192C 19.296 24.0958 19.264 24.048 19.2 24.048L 12.336 20.1119C 12.24 20.0799 12.16 20.0799 12.096 20.1119C 12.032 20.1119 12 20.1599 12 20.2559L 12 30.5759C 12 30.6722 12.048 30.7359 12.144 30.7679L 12.24 30.7679C 12.304 30.7679 12.336 30.7519 12.336 30.7199L 19.248 24.336ZM 27.6 25.104C 27.568 25.0078 27.4878 24.992 27.3598 25.056L 24.7198 26.592C 24.3998 26.784 24.064 26.784 23.7118 26.592L 21.4078 25.2962C 21.3118 25.2322 21.2318 25.2322 21.1678 25.2962L 12.3838 33.4562C 12.3518 33.488 12.3358 33.5522 12.3358 33.648C 12.3358 33.68 12.3678 33.7281 12.4318 33.792C 12.6238 33.856 12.7518 33.8882 12.8158 33.8882L 35.3278 33.8882C 35.3918 33.8882 35.4561 33.8562 35.5198 33.792C 35.5198 33.664 35.5038 33.5842 35.4718 33.552L 27.6 25.104ZM 36.24 19.92L 36.0482 19.92L 29.5202 23.808C 29.4565 23.808 29.4242 23.856 29.4242 23.952C 29.3922 23.984 29.4082 24.032 29.472 24.0958L 36 31.152C 36.064 31.216 36.112 31.2482 36.144 31.2482L 36.24 31.2482C 36.3362 31.152 36.3842 31.0882 36.3842 31.0562L 36.3842 20.1121C 36.384 20.048 36.336 19.984 36.24 19.92Z"/>
</defs>
</svg>
