<svg width="48" height="48" viewBox="0 0 48 48" version="1.1" xmlns="http://www.w3.org/2000/svg" xmlns:xlink="http://www.w3.org/1999/xlink">
<title>viber</title>
<desc>Created using Figma</desc>
<g id="Canvas" transform="translate(-3903 -458)">
<g id="viber">
<g id="Vector">
<use xlink:href="#path0_fill" transform="translate(3903 458)" fill="#6F3FAA"/>
</g>
<g id="Group">
<g id="Vector">
<use xlink:href="#path1_fill" transform="translate(3913.71 468.263)" fill="#FFFFFF"/>
</g>
<g id="Vector">
<use xlink:href="#path2_fill" transform="translate(3920.08 474.262)" fill="#FFFFFF"/>
</g>
<g id="Vector">
<use xlink:href="#path3_fill" transform="translate(3926.43 473.507)" fill="#FFFFFF"/>
</g>
<g id="Vector">
<use xlink:href="#path4_fill" transform="translate(3927.02 475.227)" fill="#FFFFFF"/>
</g>
<g id="Vector">
<use xlink:href="#path5_fill" transform="translate(3927.51 476.989)" fill="#FFFFFF"/>
</g>
</g>
<g id="Vector">
<use xlink:href="#path6_fill" transform="translate(3930.71 487.411)" fill="#FFFFFF"/>
</g>
<g id="Group">
<g id="Vector">
<use xlink:href="#path7_fill" transform="translate(3927.01 473.51)" fill="#FFFFFF"/>
</g>
<g id="Vector">
<use xlink:href="#path8_fill" transform="translate(3927.01 473.509)" fill="#FFFFFF"/>
</g>
</g>
<clipPath id="clip-0" clip-rule="evenodd">
<path d="M 3929.91 476.442L 3931.89 476.442L 3931.89 480.332L 3929.91 480.332L 3929.91 476.442Z" fill="#FFFFFF"/>
</clipPath>
<g id="Group" clip-path="url(#clip-0)">
</g>
<g id="Group">
<g id="Vector">
<use xlink:href="#path9_fill" transform="translate(3931.89 479.756)" fill="#FFFFFF"/>
</g>
<g id="Vector">
<use xlink:href="#path10_fill" transform="translate(3929.86 479.765)" fill="#FFFFFF"/>
</g>
<g id="Vector">
<use xlink:href="#path11_fill" transform="translate(3929.8 479.766)" fill="#FFFFFF"/>
</g>
<g id="Vector">
<use xlink:href="#path12_fill" transform="translate(3929.89 479.765)" fill="#FFFFFF"/>
</g>
</g>
</g>
</g>
<defs>
<path id="path0_fill" d="M 24 48C 37.2548 48 48 37.2548 48 24C 48 10.7452 37.2548 0 24 0C 10.7452 0 0 10.7452 0 24C 0 37.2548 10.7452 48 24 48Z"/>
<path id="path1_fill" d="M 25.9868 6.6052L 25.979 6.57352C 25.3377 3.98105 22.4467 1.1993 19.7917 0.620578L 19.7618 0.614391C 15.4674 -0.204797 11.1132 -0.204797 6.81984 0.614391L 6.789 0.620578C 4.13494 1.1993 1.24378 3.98123 0.601688 6.57352L 0.594562 6.6052C -0.198188 10.2255 -0.198188 13.8972 0.594562 17.5175L 0.601688 17.5492C 1.2165 20.031 3.89222 22.685 6.44813 23.4149L 6.44813 26.3087C 6.44813 27.3562 7.72453 27.8706 8.45034 27.1147L 11.3824 24.067C 12.0184 24.1025 12.6547 24.1224 13.2908 24.1224C 15.4523 24.1224 17.615 23.9179 19.7617 23.5084L 19.7916 23.5022C 22.4466 22.9235 25.3376 20.1416 25.9789 17.5493L 25.9867 17.5176C 26.7795 13.8972 26.7795 10.2257 25.9868 6.6052ZM 23.6664 16.9926C 23.2383 18.684 21.0432 20.7866 19.2991 21.1751C 17.0158 21.6093 14.7143 21.7949 12.4152 21.7312C 12.3695 21.7299 12.3255 21.7477 12.2937 21.7805C 11.9674 22.1154 10.1529 23.9782 10.1529 23.9782L 7.87594 26.3152C 7.70944 26.4888 7.41694 26.3706 7.41694 26.1311L 7.41694 21.3371C 7.41694 21.2579 7.36041 21.1906 7.28259 21.1753C 7.28212 21.1751 7.28175 21.1751 7.28128 21.175C 5.53716 20.7865 3.34284 18.6839 2.91394 16.9925C 2.20041 13.7201 2.20041 10.4026 2.91394 7.1302C 3.34284 5.43886 5.53716 3.33623 7.28128 2.94773C 11.269 2.1893 15.3123 2.1893 19.2992 2.94773C 21.0442 3.33623 23.2384 5.43886 23.6665 7.1302C 24.3808 10.4027 24.3808 13.7202 23.6664 16.9926Z"/>
<path id="path2_fill" d="M 10.7137 13.2057C 10.4456 13.1242 10.1902 13.0695 9.95269 12.9712C 7.49353 11.9509 5.2304 10.6347 3.43781 8.61707C 2.41837 7.46975 1.62047 6.17441 0.94603 4.8036C 0.626155 4.15353 0.356624 3.47807 0.0818425 2.80682C -0.168658 2.19482 0.200341 1.56257 0.588841 1.10132C 0.953435 0.668472 1.42265 0.337347 1.93078 0.0931284C 2.32734 -0.0973717 2.71847 0.0125025 3.00815 0.348596C 3.63422 1.07535 4.20947 1.83922 4.67503 2.68166C 4.96144 3.19982 4.88287 3.83319 4.36378 4.18578C 4.23759 4.27147 4.12265 4.37216 4.00519 4.46891C 3.90206 4.55375 3.80512 4.63944 3.73444 4.75428C 3.60534 4.96438 3.59915 5.21235 3.68222 5.44082C 4.32225 7.19966 5.40103 8.56747 7.1715 9.30425C 7.45481 9.4221 7.73925 9.55925 8.06569 9.52129C 8.61225 9.45744 8.78925 8.85782 9.17231 8.5446C 9.54666 8.2385 10.0252 8.23447 10.4284 8.48966C 10.8318 8.74504 11.2227 9.01897 11.6114 9.296C 11.993 9.56788 12.3727 9.83366 12.7246 10.1437C 13.063 10.4417 13.1796 10.8327 12.989 11.237C 12.6402 11.9777 12.1326 12.5938 11.4005 12.9871C 11.1938 13.0979 10.9468 13.1338 10.7137 13.2057C 10.4456 13.1242 10.9468 13.1338 10.7137 13.2057Z"/>
<path id="path3_fill" d="M 0.579668 0.00127157C 3.79614 0.0914591 6.4381 2.22605 7.00426 5.40605C 7.10073 5.94793 7.13504 6.5018 7.17798 7.05184C 7.19607 7.28312 7.06501 7.50287 6.81545 7.50596C 6.55763 7.50905 6.44167 7.29324 6.42479 7.06215C 6.3917 6.60446 6.36873 6.14462 6.30564 5.69087C 5.97273 3.29471 4.0621 1.31237 1.6771 0.887021C 1.31814 0.82299 0.951012 0.806209 0.587355 0.768053C 0.357574 0.743959 0.0566357 0.730084 0.00572945 0.444334C -0.0369268 0.204803 0.165197 0.0141164 0.393291 0.00183519C 0.455072 -0.00182106 0.517418 0.00108407 0.579668 0.00127157C 3.79632 0.0914591 0.517418 0.00108407 0.579668 0.00127157Z"/>
<path id="path4_fill" d="M 4.87726 4.61871C 4.87191 4.65893 4.86919 4.75334 4.84557 4.84221C 4.76025 5.16509 4.27051 5.20549 4.15791 4.87971C 4.12444 4.78305 4.11948 4.67299 4.11929 4.56893C 4.11816 3.88774 3.97013 3.20712 3.62654 2.61434C 3.27338 2.00506 2.73375 1.49309 2.10104 1.18305C 1.71835 0.995742 1.30463 0.879211 0.885193 0.80993C 0.701912 0.779555 0.516662 0.761274 0.332443 0.735586C 0.109224 0.704555 -0.0100257 0.562336 0.000661798 0.342399C 0.0105055 0.136336 0.161162 -0.0120697 0.385787 0.000774086C 1.12388 0.0425866 1.83694 0.202337 2.49329 0.549774C 3.82772 1.25656 4.5901 2.37199 4.81266 3.86159C 4.82269 3.92918 4.83882 3.99593 4.84397 4.06362C 4.85654 4.23068 4.86451 4.39802 4.87726 4.61871C 4.87191 4.65874 4.86451 4.39802 4.87726 4.61871Z"/>
<path id="path5_fill" d="M 2.38795 2.77883C 2.11889 2.78371 1.97489 2.63465 1.94705 2.38808C 1.92783 2.21615 1.91245 2.04177 1.87139 1.87433C 1.79058 1.54461 1.61536 1.23918 1.33804 1.03715C 1.20717 0.941802 1.05876 0.872332 0.903418 0.827332C 0.706074 0.770239 0.50095 0.78599 0.304168 0.737802C 0.0903247 0.685396 -0.0279869 0.512146 0.0056693 0.311614C 0.0362318 0.128989 0.213794 -0.013511 0.413388 0.00102028C 1.66045 0.0910203 2.55173 0.735738 2.67895 2.20386C 2.68805 2.30746 2.69854 2.41686 2.67558 2.51615C 2.63601 2.68555 2.51039 2.77058 2.38795 2.77883C 2.1188 2.78361 2.51039 2.77058 2.38795 2.77883Z"/>
<path id="path6_fill" d="M 0.0812783 0.057537C 0.314341 -0.0142755 -0.186847 -0.0239318 0.0812783 0.057537L 0.0812783 0.057537Z"/>
<path id="path7_fill" d="M 0.00931918 0.000371564C 0.00648715 0.000371564 0.00375292 7.80113e-05 0.000920888 7.80113e-05C -0.00181349 -0.000117301 0.00170199 7.85954e-05 0.00931918 0.000371564Z"/>
<path id="path8_fill" d="M -8.46863e-07 -4.80652e-07C 0.0027179 -4.80652e-07 0.00534277 0.00028133 0.00806152 0.00028133C 0.186562 0.00665633 3.08981 0.0866245 -8.46863e-07 -4.80652e-07Z"/>
<path id="path9_fill" d="M 0.00704969 0.0897723C -0.00570031 -0.130915 0.00170594 0.129804 0.00704969 0.0897723L 0.00704969 0.0897723Z"/>
<path id="path10_fill" d="M 0.0344071 0.00290658C 0.0386259 0.00262533 0.0426554 0.000468533 0.0466866 -2.17438e-07C 0.0353429 -2.17438e-07 0.0179067 0.000281948 4.57764e-07 0.000938198C 0.0116255 0.00121945 0.0222196 0.00300033 0.0344071 0.00290658Z"/>
<path id="path11_fill" d="M 0.096593 0.00196908C 0.0844993 0.00215658 0.0738114 0.000375698 0.0621864 6.9809e-07C 0.00396762 0.00159445 -0.0561257 0.00468783 0.096593 0.00196908Z"/>
<path id="path12_fill" d="M 0.0122804 -2.17438e-07C 0.00806163 0.000468533 0.00403212 0.00262533 8.69751e-07 0.00290658C 0.0315009 0.000750332 0.0287804 -2.17438e-07 0.0122804 -2.17438e-07Z"/>
</defs>
</svg>
